{"title":"Thunderbirds Are Go - S01E14 Falling Sies.HDTV.x265-[OJ]","uid":12662625,"size":183396718,"categoryP":"video","categoryS":"tv_shows","magnet":"?xt=urn:btih:715ac1e58cec32b69a38299f5812e5fe5325e1e2&amp;dn=Thunderbirds+Are+Go+-+S01E14+Falling+Sies.HDTV.x265-%5BOJ%5D&amp;tr=udp%3A%2F%2Ftracker.leechers-paradise.org%3A6969&amp;tr=udp%3A%2F%2Fzer0day.ch%3A1337&amp;tr=udp%3A%2F%2Fopen.demonii.com%3A1337&amp;tr=udp%3A%2F%2Ftracker.coppersurfer.tk%3A6969&amp;tr=udp%3A%2F%2Fexodus.desync.com%3A6969","seeders":0,"leechers":0,"uploader":"despo1ler","files":1,"time":1446322127,"description":"\n\r\n[center][b]Thunderbirds Are Go\r\n\r\n When disaster strikes... International Rescue answers the call! [/b]\r\n\r\n\r\n\r\n[b]Information: [/b]\r\n------------------------------------------------------------------------------\r\n\r\nThunderbirds Are Go - S01E13 Heavy Metal AVC AAC {OJ}\r\n\r\nThe Estrella Grand is a self-constructing luxury hotel, designed by Brains, which orbits around Earth. The hotel suffers a mysterious hull breach that will not repair itself \r\n\r\ncausing it to begin to fall to earth. Thunderbirds 2 and 3 are launched to rescue the guests including Lady Penelope and Parker. Kayo flies with Thunderbird 3 to board the \r\n\r\nhotel in search of a saboteur.\r\n Note: This episode is a homage to the original Thunderbirds episode, Ricochet. (falling space station)\r\n\r\nChildrens Animation\r\n\r\n------------------------------------------------------------------------------\r\n\r\n[b]Links and Screenshots :[/b]\r\n\r\n[b]Thumbnails [/b]\r\n\r\n\r\n------------------------------------------------------------------------------\r\n[/center]\r\n\r\n[b]Technical Specs :[/b]\r\n\r\nGeneral\r\nFormat                         : MPEG-4\r\nFormat profile                 : Base Media\r\nCodec ID                       : isom\r\nFile size                      : 175 MiB\r\nDuration                       : 22mn 8s\r\nOverall bit rate               : 1 104 Kbps\r\nEncoded date                   : UTC 2015-10-31 17:30:11\r\nTagged date                    : UTC 2015-10-31 17:30:11\r\n\r\nVideo\r\nID                             : 1\r\nFormat                         : AVC\r\nFormat/Info                    : Advanced Video Codec\r\nFormat profile                 :   \r\nFormat settings, CABAC         : Yes\r\nFormat settings, ReFrames      : 4 frames\r\nCodec ID                       : avc1\r\nCodec ID/Info                  : Advanced Video Coding\r\nDuration                       : 22mn 8s\r\nBit rate                       : 718 Kbps\r\nMaximum bit rate               : 3 232 Kbps\r\nWidth                          : 720 pixels\r\nHeight                         : 408 pixels\r\nDisplay aspect ratio           : 16:9\r\nOriginal display aspect ratio  : 16:9\r\nFrame rate mode                : Constant\r\nFrame rate                     : 25.000 fps\r\nColor space                    : YUV\r\nChroma subsampling             : 4:2:0\r\nBit depth                      : 8 bits\r\nScan type                      : Progressive\r\nBits/(Pixel*Frame)             : 0.098\r\nStream size                    : 114 MiB (65%)\r\nWriting library                : x264 core 146 r2538 121396c\r\nEncoding settings              : cabac=1 / ref=3 / deblock=1:0:0 / analyse=0x3:0x113 / me=hex / subme=7 / psy=1 / psy_rd=1.00:0.00 / mixed_ref=1 / me_range=16 / chroma_me=1 / \r\n\r\ntrellis=1 / 8x8dct=1 / cqm=0 / deadzone=21,11 / fast_pskip=1 / chroma_qp_offset=-2 / threads=4 / lookahead_threads=1 / sliced_threads=0 / nr=0 / decimate=1 / interlaced=0 / \r\n\r\nbluray_compat=0 / constrained_intra=0 / bframes=3 / b_pyramid=2 / b_adapt=1 / b_bias=0 / direct=1 / weightb=1 / open_gop=0 / weightp=2 / keyint=250 / keyint_min=25 / \r\n\r\nscenecut=40 / intra_refresh=0 / rc_lookahead=40 / rc=2pass / mbtree=1 / bitrate=718 / ratetol=1.0 / qcomp=0.60 / qpmin=0 / qpmax=69 / qpstep=4 / cplxblur=20.0 / qblur=0.5 / \r\n\r\nip_ratio=1.40 / aq=1:1.00\r\nEncoded date                   : UTC 2015-10-31 17:30:11\r\nTagged date                    : UTC 2015-10-31 17:31:47\r\n\r\nAudio\r\nID                             : 2\r\nFormat                         : AC-3\r\nFormat/Info                    : Audio Coding 3\r\nMode extension                 : CM (complete main)\r\nFormat settings, Endianness    : Big\r\nCodec ID                       : ac-3\r\nDuration                       : 22mn 8s\r\nBit rate mode                  : Constant\r\nBit rate                       : 384 Kbps\r\nChannel(s)                     : 2 channels\r\nChannel positions              : Front: L R\r\nSampling rate                  : 48.0 KHz\r\nBit depth                      : 16 bits\r\nCompression mode               : Lossy\r\nStream size                    : 60.8 MiB (35%)\r\nLanguage                       : English\r\nEncoded date                   : UTC 2015-10-31 17:31:30\r\nTagged date                    : UTC 2015-10-31 17:31:47","torrent":{"xt":"urn:btih:715ac1e58cec32b69a38299f5812e5fe5325e1e2","amp;dn":"Thunderbirds+Are+Go+-+S01E14+Falling+Sies.HDTV.x265-%5BOJ%5D","amp;tr":["udp%3A%2F%2Ftracker.leechers-paradise.org%3A6969","udp%3A%2F%2Fzer0day.ch%3A1337","udp%3A%2F%2Fopen.demonii.com%3A1337","udp%3A%2F%2Ftracker.coppersurfer.tk%3A6969","udp%3A%2F%2Fexodus.desync.com%3A6969"],"infoHash":"715ac1e58cec32b69a38299f5812e5fe5325e1e2","infoHashBuffer":{"type":"Buffer","data":[113,90,193,229,140,236,50,182,154,56,41,159,88,18,229,254,83,37,225,226]},"announce":[],"urlList":[]}}